<svg width="36" height="36" viewBox="0 0 36 36" fill="none" xmlns="http://www.w3.org/2000/svg">
<path d="M18.0002 0.719971C8.45662 0.719971 0.720215 8.45637 0.720215 18C0.720215 27.5436 8.45662 35.28 18.0002 35.28C27.5438 35.28 35.2802 27.5436 35.2802 18C35.2802 8.45637 27.5438 0.719971 18.0002 0.719971ZM25.0292 14.8752C25.0364 15.0228 25.0382 15.1704 25.0382 15.3144C25.0382 19.8144 21.6164 25.0002 15.356 25.0002C13.5061 25.0032 11.6948 24.472 10.1396 23.4702C10.4042 23.5026 10.676 23.5152 10.9514 23.5152C12.5462 23.5152 14.0132 22.9734 15.1778 22.059C14.4681 22.045 13.7804 21.81 13.2106 21.3867C12.6408 20.9634 12.2173 20.3728 11.999 19.6974C12.5087 19.7943 13.0337 19.774 13.5344 19.638C12.7641 19.4822 12.0714 19.0648 11.5737 18.4566C11.076 17.8483 10.804 17.0867 10.8038 16.3008V16.2594C11.2628 16.5132 11.7884 16.668 12.3464 16.686C11.6243 16.2052 11.113 15.4668 10.9173 14.6216C10.7216 13.7764 10.8561 12.8884 11.2934 12.1392C12.1483 13.1904 13.2145 14.0503 14.4228 14.6633C15.6312 15.2763 16.9548 15.6288 18.308 15.6978C18.136 14.9675 18.21 14.2009 18.5186 13.5171C18.8272 12.8333 19.3531 12.2706 20.0145 11.9164C20.676 11.5623 21.4358 11.4367 22.176 11.559C22.9162 11.6813 23.5953 12.0447 24.1076 12.5928C24.8693 12.4421 25.5998 12.1627 26.2676 11.7666C26.0137 12.5552 25.4822 13.2249 24.7718 13.6512C25.4465 13.5699 26.1054 13.3885 26.7266 13.113C26.2703 13.7968 25.6955 14.3936 25.0292 14.8752Z" fill="#27AE60"/>
</svg>
