<svg width="36" height="36" viewBox="0 0 36 36" fill="none" xmlns="http://www.w3.org/2000/svg">
<path d="M18.0002 0.719971C8.45662 0.719971 0.720215 8.45637 0.720215 18C0.720215 27.5436 8.45662 35.28 18.0002 35.28C27.5438 35.28 35.2802 27.5436 35.2802 18C35.2802 8.45637 27.5438 0.719971 18.0002 0.719971ZM24.6458 20.2158C24.6458 20.2158 26.174 21.7242 26.5502 22.4244C26.561 22.4388 26.5664 22.4532 26.57 22.4604C26.723 22.7178 26.759 22.9176 26.6834 23.067C26.5574 23.3154 26.1254 23.4378 25.9778 23.4486H23.2778C23.0906 23.4486 22.6982 23.4 22.223 23.0724C21.8576 22.8168 21.4976 22.3974 21.1466 21.9888C20.6228 21.3804 20.1692 20.8548 19.712 20.8548C19.6539 20.8547 19.5962 20.8638 19.541 20.8818C19.1954 20.9934 18.7526 21.4866 18.7526 22.8006C18.7526 23.211 18.4286 23.4468 18.2 23.4468H16.9634C16.5422 23.4468 14.348 23.2992 12.404 21.249C10.0244 18.738 7.88241 13.7016 7.86441 13.6548C7.72941 13.329 8.00841 13.1544 8.31261 13.1544H11.0396C11.4032 13.1544 11.522 13.3758 11.6048 13.572C11.702 13.8006 12.0584 14.7096 12.6434 15.732C13.592 17.3988 14.1734 18.0756 14.6396 18.0756C14.727 18.0745 14.8129 18.0523 14.8898 18.0108C15.4982 17.6724 15.3848 15.5034 15.3578 15.0534C15.3578 14.9688 15.356 14.0832 15.0446 13.6584C14.8214 13.3506 14.4416 13.2336 14.2112 13.1904C14.3045 13.0617 14.4273 12.9574 14.5694 12.8862C14.987 12.6774 15.7394 12.6468 16.4864 12.6468H16.9022C17.7122 12.6576 17.921 12.7098 18.2144 12.7836C18.8084 12.9258 18.821 13.3092 18.7688 14.6214C18.7526 14.994 18.7364 15.4152 18.7364 15.912C18.7364 16.02 18.731 16.1352 18.731 16.2576C18.713 16.9254 18.6914 17.6832 19.163 17.9946C19.2245 18.0331 19.2956 18.0537 19.3682 18.054C19.532 18.054 20.0252 18.054 21.3608 15.7626C21.7727 15.025 22.1307 14.2586 22.4318 13.4694C22.4588 13.4226 22.538 13.2786 22.6316 13.2228C22.7007 13.1876 22.7773 13.1696 22.8548 13.1706H26.0606C26.4098 13.1706 26.6492 13.2228 26.6942 13.3578C26.7734 13.572 26.6798 14.2254 25.2164 16.2072L24.563 17.0694C23.2364 18.8082 23.2364 18.8964 24.6458 20.2158Z" fill="#27AE60"/>
</svg>
